<?xml version="1.0" standalone="no"?><!DOCTYPE svg PUBLIC "-//W3C//DTD SVG 1.1//EN" "http://www.w3.org/Graphics/SVG/1.1/DTD/svg11.dtd"><svg t="1747295818109" class="icon" viewBox="0 0 1024 1024" version="1.1" xmlns="http://www.w3.org/2000/svg" p-id="7656" xmlns:xlink="http://www.w3.org/1999/xlink" width="200" height="200"><path d="M892.8 448h-185.6a67.2 67.2 0 0 0-67.2 67.2v-448A67.2 67.2 0 0 0 572.8 0h-121.6A67.2 67.2 0 0 0 384 67.2v192A67.2 67.2 0 0 0 316.8 192H131.2A67.2 67.2 0 0 0 64 259.2V960h896V515.2a67.2 67.2 0 0 0-67.2-67.2zM192 896H128v-128h64v128z m0-192H128v-64h64v64z m0-128H128v-64h64v64z m0-128H128v-64h64v64z m0-128H128V256h64v64z m128 576H256v-128h64v128z m0-192H256v-64h64v64z m0-128H256v-64h64v64z m0-128H256v-64h64v64z m0-128H256V256h64v64z m256 576h-128v-128h128v128z m0-192h-128v-64h128v64z m0-128h-128v-64h128v64z m0-128h-128v-64h128v64z m0-128h-128V256h128v64z m0-128h-128V128h128v64z m192 704h-64v-128h64v128z m0-192h-64v-64h64v64z m0-128h-64v-64h64v64z m128 320h-64v-128h64v128z m0-192h-64v-64h64v64z m0-128h-64v-64h64v64z" fill="" p-id="7657"></path></svg>